<svg width="1440" height="1440" viewBox="0 0 1440 1440" fill="none" xmlns="http://www.w3.org/2000/svg">
<mask id="mask0_1040_1649" style="mask-type:alpha" maskUnits="userSpaceOnUse" x="504" y="299" width="682" height="856">
<path d="M965.206 496.302C948.927 490.26 936.848 476.946 932.355 460.18C900.081 339.731 772.272 270.415 652.303 311.545C552.276 345.914 491.082 449.322 509.567 553.605C513.626 577.58 521.42 599.609 532.389 619.368C541.649 636.275 542.879 656.753 534.75 674.063C502.263 745.189 494.242 828.201 517.996 909.793C569.287 1087.1 755.75 1191.77 934.203 1143C1114.86 1093.65 1221.97 907.479 1173.5 726.584C1144.07 616.723 1064.23 534.081 965.206 496.302Z" fill="url(#paint0_linear_1040_1649)"/>
</mask>
<g mask="url(#mask0_1040_1649)">
<g filter="url(#filter0_ii_1040_1649)">
<path d="M965.206 496.302C948.927 490.26 936.848 476.946 932.355 460.18C900.081 339.731 772.272 270.415 652.303 311.545C552.276 345.914 491.082 449.322 509.567 553.605C513.626 577.58 521.42 599.609 532.389 619.368C541.649 636.275 542.879 656.753 534.75 674.063C502.263 745.189 494.242 828.201 517.996 909.793C569.287 1087.1 755.75 1191.77 934.203 1143C1114.86 1093.65 1221.97 907.479 1173.5 726.584C1144.07 616.723 1064.23 534.081 965.206 496.302Z" fill="url(#paint1_radial_1040_1649)"/>
<path d="M965.206 496.302C948.927 490.26 936.848 476.946 932.355 460.18C900.081 339.731 772.272 270.415 652.303 311.545C552.276 345.914 491.082 449.322 509.567 553.605C513.626 577.58 521.42 599.609 532.389 619.368C541.649 636.275 542.879 656.753 534.75 674.063C502.263 745.189 494.242 828.201 517.996 909.793C569.287 1087.1 755.75 1191.77 934.203 1143C1114.86 1093.65 1221.97 907.479 1173.5 726.584C1144.07 616.723 1064.23 534.081 965.206 496.302Z" fill="#1F2E7E" fill-opacity="0.2"/>
</g>
</g>
<mask id="mask1_1040_1649" style="mask-type:alpha" maskUnits="userSpaceOnUse" x="230" y="439" width="500" height="450">
<path d="M232.89 683.049C250.462 791.858 351.082 869.153 460.712 858.506C461.318 858.283 462.339 858.252 462.753 858.444C503.084 853.964 542.952 861.351 579.842 878.432C600.567 888.028 624.777 891.184 649.318 884.93C696.994 873.28 730.61 828.946 729.139 779.942C728.189 748.294 713.261 720.743 691.048 702.404C667.783 683.075 652.471 656.353 648.711 626.424C648.68 625.403 648.235 624.191 648.397 622.755C633.289 507.537 528.463 426.28 413.245 441.388C296.177 456.142 214.021 565.083 232.89 683.049Z" fill="url(#paint2_linear_1040_1649)"/>
</mask>
<g mask="url(#mask1_1040_1649)">
<g filter="url(#filter1_dii_1040_1649)">
<path d="M232.89 683.049C250.462 791.858 351.082 869.153 460.712 858.506C461.318 858.283 462.339 858.252 462.753 858.444C503.084 853.964 542.952 861.351 579.842 878.432C600.567 888.028 624.777 891.184 649.318 884.93C696.994 873.28 730.61 828.946 729.139 779.942C728.189 748.294 713.261 720.743 691.048 702.404C667.783 683.075 652.471 656.353 648.711 626.424C648.68 625.403 648.235 624.191 648.397 622.755C633.289 507.537 528.463 426.28 413.245 441.388C296.177 456.142 214.021 565.083 232.89 683.049Z" fill="url(#paint3_radial_1040_1649)"/>
<path d="M232.89 683.049C250.462 791.858 351.082 869.153 460.712 858.506C461.318 858.283 462.339 858.252 462.753 858.444C503.084 853.964 542.952 861.351 579.842 878.432C600.567 888.028 624.777 891.184 649.318 884.93C696.994 873.28 730.61 828.946 729.139 779.942C728.189 748.294 713.261 720.743 691.048 702.404C667.783 683.075 652.471 656.353 648.711 626.424C648.68 625.403 648.235 624.191 648.397 622.755C633.289 507.537 528.463 426.28 413.245 441.388C296.177 456.142 214.021 565.083 232.89 683.049Z" fill="#1F2E7E" fill-opacity="0.2"/>
</g>
</g>
<g filter="url(#filter2_ii_1040_1649)">
<path d="M1089.75 531.12C1077.79 507.231 1046.79 492.402 1053.37 462.017C1054.11 456.304 1056.1 450.642 1059.01 445.696C1061.9 440.545 1065.9 435.88 1070.84 432.136C1075.78 428.392 1081.28 425.826 1087.12 424.258C1092.96 422.691 1098.75 422.378 1104.46 423.116C1137.67 437.253 1169.46 474.879 1171.88 512.248C1171.17 518.166 1169.35 523.598 1166.26 528.775C1163.37 533.926 1159.37 538.591 1154.43 542.335C1149.49 546.079 1143.99 548.645 1138.15 550.212C1132.52 551.754 1126.5 551.887 1120.78 551.149C1115.05 550.206 1109.15 548.034 1103.92 544.529C1098.7 541.025 1093.75 536.444 1089.75 531.12Z" fill="url(#paint4_radial_1040_1649)"/>
<path d="M1089.75 531.12C1077.79 507.231 1046.79 492.402 1053.37 462.017C1054.11 456.304 1056.1 450.642 1059.01 445.696C1061.9 440.545 1065.9 435.88 1070.84 432.136C1075.78 428.392 1081.28 425.826 1087.12 424.258C1092.96 422.691 1098.75 422.378 1104.46 423.116C1137.67 437.253 1169.46 474.879 1171.88 512.248C1171.17 518.166 1169.35 523.598 1166.26 528.775C1163.37 533.926 1159.37 538.591 1154.43 542.335C1149.49 546.079 1143.99 548.645 1138.15 550.212C1132.52 551.754 1126.5 551.887 1120.78 551.149C1115.05 550.206 1109.15 548.034 1103.92 544.529C1098.7 541.025 1093.75 536.444 1089.75 531.12Z" fill="#1F2E7E" fill-opacity="0.2"/>
</g>
<g filter="url(#filter3_diif_1040_1649)">
<path d="M555.301 1046.15C539.919 1038.65 518.374 1043.18 509.891 1025.17C508.042 1021.97 506.851 1018.32 506.408 1014.66C505.873 1010.92 506.087 1006.99 507.142 1003.16C508.197 999.337 509.998 995.888 512.357 992.817C514.717 989.747 517.539 987.334 520.732 985.485C543.127 979.745 573.949 986.503 589.727 1004.57C591.669 1007.86 592.862 1011.33 593.303 1015.17C593.839 1018.91 593.625 1022.84 592.57 1026.67C591.515 1030.49 589.714 1033.94 587.354 1037.01C585.089 1039.99 582.079 1042.4 578.886 1044.25C575.6 1046.01 571.757 1047.2 567.733 1047.45C563.709 1047.7 559.409 1047.3 555.301 1046.15Z" fill="url(#paint5_radial_1040_1649)"/>
<path d="M555.301 1046.15C539.919 1038.65 518.374 1043.18 509.891 1025.17C508.042 1021.97 506.851 1018.32 506.408 1014.66C505.873 1010.92 506.087 1006.99 507.142 1003.16C508.197 999.337 509.998 995.888 512.357 992.817C514.717 989.747 517.539 987.334 520.732 985.485C543.127 979.745 573.949 986.503 589.727 1004.57C591.669 1007.86 592.862 1011.33 593.303 1015.17C593.839 1018.91 593.625 1022.84 592.57 1026.67C591.515 1030.49 589.714 1033.94 587.354 1037.01C585.089 1039.99 582.079 1042.4 578.886 1044.25C575.6 1046.01 571.757 1047.2 567.733 1047.45C563.709 1047.7 559.409 1047.3 555.301 1046.15Z" fill="#1F2E7E" fill-opacity="0.2"/>
</g>
<g filter="url(#filter4_dii_1040_1649)">
<path d="M939.238 959.68C1005.42 959.68 1059.08 906.026 1059.08 839.84C1059.08 773.654 1005.42 720 939.238 720C873.053 720 819.398 773.654 819.398 839.84C819.398 906.026 873.053 959.68 939.238 959.68Z" fill="url(#paint6_radial_1040_1649)"/>
<path d="M939.238 959.68C1005.42 959.68 1059.08 906.026 1059.08 839.84C1059.08 773.654 1005.42 720 939.238 720C873.053 720 819.398 773.654 819.398 839.84C819.398 906.026 873.053 959.68 939.238 959.68Z" fill="#1F2E7E" fill-opacity="0.2"/>
</g>
<g filter="url(#filter5_di_1040_1649)">
<path d="M461.74 384.13C479.415 384.13 493.743 369.802 493.743 352.127C493.743 334.452 479.415 320.124 461.74 320.124C444.065 320.124 429.737 334.452 429.737 352.127C429.737 369.802 444.065 384.13 461.74 384.13Z" fill="url(#paint7_radial_1040_1649)"/>
<path d="M461.74 384.13C479.415 384.13 493.743 369.802 493.743 352.127C493.743 334.452 479.415 320.124 461.74 320.124C444.065 320.124 429.737 334.452 429.737 352.127C429.737 369.802 444.065 384.13 461.74 384.13Z" fill="#1F2E7E" fill-opacity="0.2"/>
</g>
<g filter="url(#filter6_diif_1040_1649)">
<path d="M789.214 378.651C821.537 404.977 869.082 400.116 895.408 367.793C921.735 335.47 916.873 287.925 884.55 261.599C852.227 235.272 804.682 240.134 778.356 272.457C752.03 304.78 756.891 352.324 789.214 378.651Z" fill="url(#paint8_radial_1040_1649)"/>
<path d="M789.214 378.651C821.537 404.977 869.082 400.116 895.408 367.793C921.735 335.47 916.873 287.925 884.55 261.599C852.227 235.272 804.682 240.134 778.356 272.457C752.03 304.78 756.891 352.324 789.214 378.651Z" fill="#1F2E7E" fill-opacity="0.2"/>
</g>
<defs>
<filter id="filter0_ii_1040_1649" x="474.907" y="299.643" width="752.414" height="906.715" filterUnits="userSpaceOnUse" color-interpolation-filters="sRGB">
<feFlood flood-opacity="0" result="BackgroundImageFix"/>
<feBlend mode="normal" in="SourceGraphic" in2="BackgroundImageFix" result="shape"/>
<feColorMatrix in="SourceAlpha" type="matrix" values="0 0 0 0 0 0 0 0 0 0 0 0 0 0 0 0 0 0 127 0" result="hardAlpha"/>
<feOffset dx="-29.3625" dy="51.3844"/>
<feGaussianBlur stdDeviation="62.3954"/>
<feComposite in2="hardAlpha" operator="arithmetic" k2="-1" k3="1"/>
<feColorMatrix type="matrix" values="0 0 0 0 1 0 0 0 0 1 0 0 0 0 1 0 0 0 0.87 0"/>
<feBlend mode="lighten" in2="shape" result="effect1_innerShadow_1040_1649"/>
<feColorMatrix in="SourceAlpha" type="matrix" values="0 0 0 0 0 0 0 0 0 0 0 0 0 0 0 0 0 0 127 0" result="hardAlpha"/>
<feOffset dx="42.16" dy="24.5928"/>
<feGaussianBlur stdDeviation="24.5928"/>
<feComposite in2="hardAlpha" operator="arithmetic" k2="-1" k3="1"/>
<feColorMatrix type="matrix" values="0 0 0 0 0.168627 0 0 0 0 0.180392 0 0 0 0 0.239216 0 0 0 0.9 0"/>
<feBlend mode="multiply" in2="effect1_innerShadow_1040_1649" result="effect2_innerShadow_1040_1649"/>
</filter>
<filter id="filter1_dii_1040_1649" x="200.828" y="439.58" width="570.517" height="518.986" filterUnits="userSpaceOnUse" color-interpolation-filters="sRGB">
<feFlood flood-opacity="0" result="BackgroundImageFix"/>
<feColorMatrix in="SourceAlpha" type="matrix" values="0 0 0 0 0 0 0 0 0 0 0 0 0 0 0 0 0 0 127 0" result="hardAlpha"/>
<feOffset dy="57.6"/>
<feGaussianBlur stdDeviation="6.4"/>
<feComposite in2="hardAlpha" operator="out"/>
<feColorMatrix type="matrix" values="0 0 0 0 0 0 0 0 0 0 0 0 0 0 0 0 0 0 0.16 0"/>
<feBlend mode="multiply" in2="BackgroundImageFix" result="effect1_dropShadow_1040_1649"/>
<feBlend mode="normal" in="SourceGraphic" in2="effect1_dropShadow_1040_1649" result="shape"/>
<feColorMatrix in="SourceAlpha" type="matrix" values="0 0 0 0 0 0 0 0 0 0 0 0 0 0 0 0 0 0 127 0" result="hardAlpha"/>
<feOffset dx="-29.3625" dy="51.3844"/>
<feGaussianBlur stdDeviation="62.3954"/>
<feComposite in2="hardAlpha" operator="arithmetic" k2="-1" k3="1"/>
<feColorMatrix type="matrix" values="0 0 0 0 1 0 0 0 0 1 0 0 0 0 1 0 0 0 0.87 0"/>
<feBlend mode="lighten" in2="shape" result="effect2_innerShadow_1040_1649"/>
<feColorMatrix in="SourceAlpha" type="matrix" values="0 0 0 0 0 0 0 0 0 0 0 0 0 0 0 0 0 0 127 0" result="hardAlpha"/>
<feOffset dx="42.1591" dy="24.5928"/>
<feGaussianBlur stdDeviation="24.5928"/>
<feComposite in2="hardAlpha" operator="arithmetic" k2="-1" k3="1"/>
<feColorMatrix type="matrix" values="0 0 0 0 0.168627 0 0 0 0 0.180392 0 0 0 0 0.239216 0 0 0 0.9 0"/>
<feBlend mode="multiply" in2="effect2_innerShadow_1040_1649" result="effect3_innerShadow_1040_1649"/>
</filter>
<filter id="filter2_ii_1040_1649" x="1014.56" y="422.736" width="211.729" height="195.17" filterUnits="userSpaceOnUse" color-interpolation-filters="sRGB">
<feFlood flood-opacity="0" result="BackgroundImageFix"/>
<feBlend mode="normal" in="SourceGraphic" in2="BackgroundImageFix" result="shape"/>
<feColorMatrix in="SourceAlpha" type="matrix" values="0 0 0 0 0 0 0 0 0 0 0 0 0 0 0 0 0 0 127 0" result="hardAlpha"/>
<feOffset dx="-37.8979" dy="66.3214"/>
<feGaussianBlur stdDeviation="80.5331"/>
<feComposite in2="hardAlpha" operator="arithmetic" k2="-1" k3="1"/>
<feColorMatrix type="matrix" values="0 0 0 0 1 0 0 0 0 1 0 0 0 0 1 0 0 0 0.87 0"/>
<feBlend mode="lighten" in2="shape" result="effect1_innerShadow_1040_1649"/>
<feColorMatrix in="SourceAlpha" type="matrix" values="0 0 0 0 0 0 0 0 0 0 0 0 0 0 0 0 0 0 127 0" result="hardAlpha"/>
<feOffset dx="54.4143" dy="31.7417"/>
<feGaussianBlur stdDeviation="31.7417"/>
<feComposite in2="hardAlpha" operator="arithmetic" k2="-1" k3="1"/>
<feColorMatrix type="matrix" values="0 0 0 0 0.168627 0 0 0 0 0.180392 0 0 0 0 0.239216 0 0 0 0.9 0"/>
<feBlend mode="multiply" in2="effect1_innerShadow_1040_1649" result="effect2_innerShadow_1040_1649"/>
</filter>
<filter id="filter3_diif_1040_1649" x="476.763" y="963.349" width="158.983" height="154.572" filterUnits="userSpaceOnUse" color-interpolation-filters="sRGB">
<feFlood flood-opacity="0" result="BackgroundImageFix"/>
<feColorMatrix in="SourceAlpha" type="matrix" values="0 0 0 0 0 0 0 0 0 0 0 0 0 0 0 0 0 0 127 0" result="hardAlpha"/>
<feOffset dy="57.6"/>
<feGaussianBlur stdDeviation="6.4"/>
<feComposite in2="hardAlpha" operator="out"/>
<feColorMatrix type="matrix" values="0 0 0 0 0 0 0 0 0 0 0 0 0 0 0 0 0 0 0.16 0"/>
<feBlend mode="multiply" in2="BackgroundImageFix" result="effect1_dropShadow_1040_1649"/>
<feBlend mode="normal" in="SourceGraphic" in2="effect1_dropShadow_1040_1649" result="shape"/>
<feColorMatrix in="SourceAlpha" type="matrix" values="0 0 0 0 0 0 0 0 0 0 0 0 0 0 0 0 0 0 127 0" result="hardAlpha"/>
<feOffset dx="-29.3625" dy="51.3844"/>
<feGaussianBlur stdDeviation="62.3954"/>
<feComposite in2="hardAlpha" operator="arithmetic" k2="-1" k3="1"/>
<feColorMatrix type="matrix" values="0 0 0 0 1 0 0 0 0 1 0 0 0 0 1 0 0 0 0.87 0"/>
<feBlend mode="lighten" in2="shape" result="effect2_innerShadow_1040_1649"/>
<feColorMatrix in="SourceAlpha" type="matrix" values="0 0 0 0 0 0 0 0 0 0 0 0 0 0 0 0 0 0 127 0" result="hardAlpha"/>
<feOffset dx="42.1591" dy="24.5928"/>
<feGaussianBlur stdDeviation="24.5928"/>
<feComposite in2="hardAlpha" operator="arithmetic" k2="-1" k3="1"/>
<feColorMatrix type="matrix" values="0 0 0 0 0.168627 0 0 0 0 0.180392 0 0 0 0 0.239216 0 0 0 0.9 0"/>
<feBlend mode="multiply" in2="effect2_innerShadow_1040_1649" result="effect3_innerShadow_1040_1649"/>
<feGaussianBlur stdDeviation="10.072" result="effect4_foregroundBlur_1040_1649"/>
</filter>
<filter id="filter4_dii_1040_1649" x="790.036" y="720" width="311.201" height="310.08" filterUnits="userSpaceOnUse" color-interpolation-filters="sRGB">
<feFlood flood-opacity="0" result="BackgroundImageFix"/>
<feColorMatrix in="SourceAlpha" type="matrix" values="0 0 0 0 0 0 0 0 0 0 0 0 0 0 0 0 0 0 127 0" result="hardAlpha"/>
<feOffset dy="57.6"/>
<feGaussianBlur stdDeviation="6.4"/>
<feComposite in2="hardAlpha" operator="out"/>
<feColorMatrix type="matrix" values="0 0 0 0 0 0 0 0 0 0 0 0 0 0 0 0 0 0 0.16 0"/>
<feBlend mode="multiply" in2="BackgroundImageFix" result="effect1_dropShadow_1040_1649"/>
<feBlend mode="normal" in="SourceGraphic" in2="effect1_dropShadow_1040_1649" result="shape"/>
<feColorMatrix in="SourceAlpha" type="matrix" values="0 0 0 0 0 0 0 0 0 0 0 0 0 0 0 0 0 0 127 0" result="hardAlpha"/>
<feOffset dx="-29.3625" dy="51.3844"/>
<feGaussianBlur stdDeviation="62.3954"/>
<feComposite in2="hardAlpha" operator="arithmetic" k2="-1" k3="1"/>
<feColorMatrix type="matrix" values="0 0 0 0 1 0 0 0 0 1 0 0 0 0 1 0 0 0 0.87 0"/>
<feBlend mode="lighten" in2="shape" result="effect2_innerShadow_1040_1649"/>
<feColorMatrix in="SourceAlpha" type="matrix" values="0 0 0 0 0 0 0 0 0 0 0 0 0 0 0 0 0 0 127 0" result="hardAlpha"/>
<feOffset dx="42.1591" dy="24.5928"/>
<feGaussianBlur stdDeviation="24.5928"/>
<feComposite in2="hardAlpha" operator="arithmetic" k2="-1" k3="1"/>
<feColorMatrix type="matrix" values="0 0 0 0 0.168627 0 0 0 0 0.180392 0 0 0 0 0.239216 0 0 0 0.9 0"/>
<feBlend mode="multiply" in2="effect2_innerShadow_1040_1649" result="effect3_innerShadow_1040_1649"/>
</filter>
<filter id="filter5_di_1040_1649" x="421.896" y="320.124" width="75.2653" height="82.806" filterUnits="userSpaceOnUse" color-interpolation-filters="sRGB">
<feFlood flood-opacity="0" result="BackgroundImageFix"/>
<feColorMatrix in="SourceAlpha" type="matrix" values="0 0 0 0 0 0 0 0 0 0 0 0 0 0 0 0 0 0 127 0" result="hardAlpha"/>
<feOffset dy="15.3819"/>
<feGaussianBlur stdDeviation="1.7091"/>
<feComposite in2="hardAlpha" operator="out"/>
<feColorMatrix type="matrix" values="0 0 0 0 0 0 0 0 0 0 0 0 0 0 0 0 0 0 0.16 0"/>
<feBlend mode="multiply" in2="BackgroundImageFix" result="effect1_dropShadow_1040_1649"/>
<feBlend mode="normal" in="SourceGraphic" in2="effect1_dropShadow_1040_1649" result="shape"/>
<feColorMatrix in="SourceAlpha" type="matrix" values="0 0 0 0 0 0 0 0 0 0 0 0 0 0 0 0 0 0 127 0" result="hardAlpha"/>
<feOffset dx="-7.84119" dy="13.7221"/>
<feGaussianBlur stdDeviation="16.6625"/>
<feComposite in2="hardAlpha" operator="arithmetic" k2="-1" k3="1"/>
<feColorMatrix type="matrix" values="0 0 0 0 1 0 0 0 0 1 0 0 0 0 1 0 0 0 0.87 0"/>
<feBlend mode="lighten" in2="shape" result="effect2_innerShadow_1040_1649"/>
</filter>
<filter id="filter6_diif_1040_1649" x="732.035" y="224.496" width="222.49" height="241.513" filterUnits="userSpaceOnUse" color-interpolation-filters="sRGB">
<feFlood flood-opacity="0" result="BackgroundImageFix"/>
<feColorMatrix in="SourceAlpha" type="matrix" values="0 0 0 0 0 0 0 0 0 0 0 0 0 0 0 0 0 0 127 0" result="hardAlpha"/>
<feOffset dy="57.6"/>
<feGaussianBlur stdDeviation="6.4"/>
<feComposite in2="hardAlpha" operator="out"/>
<feColorMatrix type="matrix" values="0 0 0 0 0 0 0 0 0 0 0 0 0 0 0 0 0 0 0.16 0"/>
<feBlend mode="multiply" in2="BackgroundImageFix" result="effect1_dropShadow_1040_1649"/>
<feBlend mode="normal" in="SourceGraphic" in2="effect1_dropShadow_1040_1649" result="shape"/>
<feColorMatrix in="SourceAlpha" type="matrix" values="0 0 0 0 0 0 0 0 0 0 0 0 0 0 0 0 0 0 127 0" result="hardAlpha"/>
<feOffset dx="-29.3625" dy="51.3844"/>
<feGaussianBlur stdDeviation="62.3954"/>
<feComposite in2="hardAlpha" operator="arithmetic" k2="-1" k3="1"/>
<feColorMatrix type="matrix" values="0 0 0 0 1 0 0 0 0 1 0 0 0 0 1 0 0 0 0.87 0"/>
<feBlend mode="lighten" in2="shape" result="effect2_innerShadow_1040_1649"/>
<feColorMatrix in="SourceAlpha" type="matrix" values="0 0 0 0 0 0 0 0 0 0 0 0 0 0 0 0 0 0 127 0" result="hardAlpha"/>
<feOffset dx="42.1591" dy="24.5928"/>
<feGaussianBlur stdDeviation="24.5928"/>
<feComposite in2="hardAlpha" operator="arithmetic" k2="-1" k3="1"/>
<feColorMatrix type="matrix" values="0 0 0 0 0.168627 0 0 0 0 0.180392 0 0 0 0 0.239216 0 0 0 0.9 0"/>
<feBlend mode="multiply" in2="effect2_innerShadow_1040_1649" result="effect3_innerShadow_1040_1649"/>
<feGaussianBlur stdDeviation="10.072" result="effect4_foregroundBlur_1040_1649"/>
</filter>
<linearGradient id="paint0_linear_1040_1649" x1="952.602" y1="1217.12" x2="767.203" y2="619.723" gradientUnits="userSpaceOnUse">
<stop offset="0.515679" stop-opacity="0"/>
<stop offset="1"/>
</linearGradient>
<radialGradient id="paint1_radial_1040_1649" cx="0" cy="0" r="1" gradientUnits="userSpaceOnUse" gradientTransform="translate(581.504 255.902) rotate(72.8349) scale(312.448 631.311)">
<stop stop-color="#949494"/>
<stop offset="0.635171" stop-color="#181818"/>
<stop offset="1" stop-color="#1D1D1D"/>
</radialGradient>
<linearGradient id="paint2_linear_1040_1649" x1="173.236" y1="402.346" x2="568.232" y2="659.776" gradientUnits="userSpaceOnUse">
<stop offset="0.119214" stop-opacity="0"/>
<stop offset="1"/>
</linearGradient>
<radialGradient id="paint3_radial_1040_1649" cx="0" cy="0" r="1" gradientUnits="userSpaceOnUse" gradientTransform="translate(517.651 416.179) rotate(111.274) scale(149.78 498.378)">
<stop stop-color="#949494"/>
<stop offset="0.635171" stop-color="#181818"/>
<stop offset="1" stop-color="#1D1D1D"/>
</radialGradient>
<radialGradient id="paint4_radial_1040_1649" cx="0" cy="0" r="1" gradientUnits="userSpaceOnUse" gradientTransform="translate(1174.53 457.962) rotate(169.586) scale(40.5406 122.441)">
<stop stop-color="#949494"/>
<stop offset="0.635171" stop-color="#181818"/>
<stop offset="1" stop-color="#1D1D1D"/>
</radialGradient>
<radialGradient id="paint5_radial_1040_1649" cx="0" cy="0" r="1" gradientUnits="userSpaceOnUse" gradientTransform="translate(569.939 975.927) rotate(132.151) scale(25.9686 78.4307)">
<stop stop-color="#949494"/>
<stop offset="0.635171" stop-color="#181818"/>
<stop offset="1" stop-color="#1D1D1D"/>
</radialGradient>
<radialGradient id="paint6_radial_1040_1649" cx="0" cy="0" r="1" gradientUnits="userSpaceOnUse" gradientTransform="translate(900.621 700.438) rotate(87.2124) scale(85.468 222.195)">
<stop stop-color="#949494"/>
<stop offset="0.635171" stop-color="#181818"/>
<stop offset="1" stop-color="#1D1D1D"/>
</radialGradient>
<radialGradient id="paint7_radial_1040_1649" cx="0" cy="0" r="1" gradientUnits="userSpaceOnUse" gradientTransform="translate(451.427 314.9) rotate(87.2124) scale(22.824 59.3365)">
<stop stop-color="#949494"/>
<stop offset="0.635171" stop-color="#181818"/>
<stop offset="1" stop-color="#1D1D1D"/>
</radialGradient>
<radialGradient id="paint8_radial_1040_1649" cx="0" cy="0" r="1" gradientUnits="userSpaceOnUse" gradientTransform="translate(873.472 236.685) rotate(126.374) scale(53.8326 139.951)">
<stop stop-color="#949494"/>
<stop offset="0.635171" stop-color="#181818"/>
<stop offset="1" stop-color="#1D1D1D"/>
</radialGradient>
</defs>
</svg>
